# xmcd CD database file
#
# Track frame offsets:
#	182
#	19027
#	48162
#	75145
#	105112
#	130840
#
# Disc length: 2190 seconds
#
# Revision: 0
# Processed by: cddbd v1.4PL0 Copyright (c) Steve Scherf et al.
# Submitted via: CDex 1.50
#
DISCID=30088c06
DTITLE=Gardony, Laszlo - The Secret
DYEAR=1988
DGENRE=Jazz
TTITLE0=The Secret
TTITLE1=Soul
TTITLE2=Big Red
TTITLE3=Edith
TTITLE4=Emeralds
TTITLE5=Free
EXTD=YEAR: 1988
EXTT0=
EXTT1=
EXTT2=
EXTT3=
EXTT4=
EXTT5=
PLAYORDER=
